<svg class="rich-terminal" viewBox="0 0 1360 904.0" xmlns="http://www.w3.org/2000/svg">
    <!-- Generated with Rich https://www.textualize.io -->
    <style>

    @font-face {
        font-family: "Fira Code";
        src: local("FiraCode-Regular"),
                url("https://cdnjs.cloudflare.com/ajax/libs/firacode/6.2.0/woff2/FiraCode-Regular.woff2") format("woff2"),
                url("https://cdnjs.cloudflare.com/ajax/libs/firacode/6.2.0/woff/FiraCode-Regular.woff") format("woff");
        font-style: normal;
        font-weight: 400;
    }
    @font-face {
        font-family: "Fira Code";
        src: local("FiraCode-Bold"),
                url("https://cdnjs.cloudflare.com/ajax/libs/firacode/6.2.0/woff2/FiraCode-Bold.woff2") format("woff2"),
                url("https://cdnjs.cloudflare.com/ajax/libs/firacode/6.2.0/woff/FiraCode-Bold.woff") format("woff");
        font-style: bold;
        font-weight: 700;
    }

    .terminal-3812035162-matrix {
        font-family: Fira Code, monospace;
        font-size: 20px;
        line-height: 24.4px;
        font-variant-east-asian: full-width;
    }

    .terminal-3812035162-title {
        font-size: 18px;
        font-weight: bold;
        font-family: arial;
    }

    .terminal-3812035162-r1 { fill: #c5c8c6 }
.terminal-3812035162-r2 { fill: #e0e0e0 }
.terminal-3812035162-r3 { fill: #a0a3a6 }
.terminal-3812035162-r4 { fill: #797979 }
.terminal-3812035162-r5 { fill: #262626 }
.terminal-3812035162-r6 { fill: #0178d4 }
.terminal-3812035162-r7 { fill: #fea62b }
.terminal-3812035162-r8 { fill: #e0e0e0;font-weight: bold }
.terminal-3812035162-r9 { fill: #a0a0a0 }
.terminal-3812035162-r10 { fill: #6f6f6f }
.terminal-3812035162-r11 { fill: #6f6f6f;text-decoration: line-through; }
.terminal-3812035162-r12 { fill: #ddedf9;font-weight: bold }
.terminal-3812035162-r13 { fill: #fd971f }
.terminal-3812035162-r14 { fill: #dde8f3 }
    </style>

    <defs>
    <clipPath id="terminal-3812035162-clip-terminal">
      <rect x="0" y="0" width="1341.0" height="853.0" />
    </clipPath>
    <clipPath id="terminal-3812035162-line-0">
    <rect x="0" y="1.5" width="1342" height="24.65"/>
            </clipPath>
<clipPath id="terminal-3812035162-line-1">
    <rect x="0" y="25.9" width="1342" height="24.65"/>
            </clipPath>
<clipPath id="terminal-3812035162-line-2">
    <rect x="0" y="50.3" width="1342" height="24.65"/>
            </clipPath>
<clipPath id="terminal-3812035162-line-3">
    <rect x="0" y="74.7" width="1342" height="24.65"/>
            </clipPath>
<clipPath id="terminal-3812035162-line-4">
    <rect x="0" y="99.1" width="1342" height="24.65"/>
            </clipPath>
<clipPath id="terminal-3812035162-line-5">
    <rect x="0" y="123.5" width="1342" height="24.65"/>
            </clipPath>
<clipPath id="terminal-3812035162-line-6">
    <rect x="0" y="147.9" width="1342" height="24.65"/>
            </clipPath>
<clipPath id="terminal-3812035162-line-7">
    <rect x="0" y="172.3" width="1342" height="24.65"/>
            </clipPath>
<clipPath id="terminal-3812035162-line-8">
    <rect x="0" y="196.7" width="1342" height="24.65"/>
            </clipPath>
<clipPath id="terminal-3812035162-line-9">
    <rect x="0" y="221.1" width="1342" height="24.65"/>
            </clipPath>
<clipPath id="terminal-3812035162-line-10">
    <rect x="0" y="245.5" width="1342" height="24.65"/>
            </clipPath>
<clipPath id="terminal-3812035162-line-11">
    <rect x="0" y="269.9" width="1342" height="24.65"/>
            </clipPath>
<clipPath id="terminal-3812035162-line-12">
    <rect x="0" y="294.3" width="1342" height="24.65"/>
            </clipPath>
<clipPath id="terminal-3812035162-line-13">
    <rect x="0" y="318.7" width="1342" height="24.65"/>
            </clipPath>
<clipPath id="terminal-3812035162-line-14">
    <rect x="0" y="343.1" width="1342" height="24.65"/>
            </clipPath>
<clipPath id="terminal-3812035162-line-15">
    <rect x="0" y="367.5" width="1342" height="24.65"/>
            </clipPath>
<clipPath id="terminal-3812035162-line-16">
    <rect x="0" y="391.9" width="1342" height="24.65"/>
            </clipPath>
<clipPath id="terminal-3812035162-line-17">
    <rect x="0" y="416.3" width="1342" height="24.65"/>
            </clipPath>
<clipPath id="terminal-3812035162-line-18">
    <rect x="0" y="440.7" width="1342" height="24.65"/>
            </clipPath>
<clipPath id="terminal-3812035162-line-19">
    <rect x="0" y="465.1" width="1342" height="24.65"/>
            </clipPath>
<clipPath id="terminal-3812035162-line-20">
    <rect x="0" y="489.5" width="1342" height="24.65"/>
            </clipPath>
<clipPath id="terminal-3812035162-line-21">
    <rect x="0" y="513.9" width="1342" height="24.65"/>
            </clipPath>
<clipPath id="terminal-3812035162-line-22">
    <rect x="0" y="538.3" width="1342" height="24.65"/>
            </clipPath>
<clipPath id="terminal-3812035162-line-23">
    <rect x="0" y="562.7" width="1342" height="24.65"/>
            </clipPath>
<clipPath id="terminal-3812035162-line-24">
    <rect x="0" y="587.1" width="1342" height="24.65"/>
            </clipPath>
<clipPath id="terminal-3812035162-line-25">
    <rect x="0" y="611.5" width="1342" height="24.65"/>
            </clipPath>
<clipPath id="terminal-3812035162-line-26">
    <rect x="0" y="635.9" width="1342" height="24.65"/>
            </clipPath>
<clipPath id="terminal-3812035162-line-27">
    <rect x="0" y="660.3" width="1342" height="24.65"/>
            </clipPath>
<clipPath id="terminal-3812035162-line-28">
    <rect x="0" y="684.7" width="1342" height="24.65"/>
            </clipPath>
<clipPath id="terminal-3812035162-line-29">
    <rect x="0" y="709.1" width="1342" height="24.65"/>
            </clipPath>
<clipPath id="terminal-3812035162-line-30">
    <rect x="0" y="733.5" width="1342" height="24.65"/>
            </clipPath>
<clipPath id="terminal-3812035162-line-31">
    <rect x="0" y="757.9" width="1342" height="24.65"/>
            </clipPath>
<clipPath id="terminal-3812035162-line-32">
    <rect x="0" y="782.3" width="1342" height="24.65"/>
            </clipPath>
<clipPath id="terminal-3812035162-line-33">
    <rect x="0" y="806.7" width="1342" height="24.65"/>
            </clipPath>
    </defs>

    <rect fill="#292929" stroke="rgba(255,255,255,0.35)" stroke-width="1" x="1" y="1" width="1358" height="902" rx="8"/><text class="terminal-3812035162-title" fill="#c5c8c6" text-anchor="middle" x="679" y="27">Budget&#160;Tracker</text>
            <g transform="translate(26,22)">
            <circle cx="0" cy="0" r="7" fill="#ff5f57"/>
            <circle cx="22" cy="0" r="7" fill="#febc2e"/>
            <circle cx="44" cy="0" r="7" fill="#28c840"/>
            </g>
        
    <g transform="translate(9, 41)" clip-path="url(#terminal-3812035162-clip-terminal)">
    <rect fill="#242f38" x="0" y="1.5" width="12.2" height="24.65" shape-rendering="crispEdges"/><rect fill="#242f38" x="12.2" y="1.5" width="12.2" height="24.65" shape-rendering="crispEdges"/><rect fill="#242f38" x="24.4" y="1.5" width="61" height="24.65" shape-rendering="crispEdges"/><rect fill="#242f38" x="85.4" y="1.5" width="12.2" height="24.65" shape-rendering="crispEdges"/><rect fill="#242f38" x="97.6" y="1.5" width="366" height="24.65" shape-rendering="crispEdges"/><rect fill="#242f38" x="463.6" y="1.5" width="170.8" height="24.65" shape-rendering="crispEdges"/><rect fill="#242f38" x="634.4" y="1.5" width="36.6" height="24.65" shape-rendering="crispEdges"/><rect fill="#242f38" x="671" y="1.5" width="183" height="24.65" shape-rendering="crispEdges"/><rect fill="#242f38" x="854" y="1.5" width="366" height="24.65" shape-rendering="crispEdges"/><rect fill="#242f38" x="1220" y="1.5" width="12.2" height="24.65" shape-rendering="crispEdges"/><rect fill="#242f38" x="1232.2" y="1.5" width="0" height="24.65" shape-rendering="crispEdges"/><rect fill="#242f38" x="1232.2" y="1.5" width="97.6" height="24.65" shape-rendering="crispEdges"/><rect fill="#242f38" x="1329.8" y="1.5" width="12.2" height="24.65" shape-rendering="crispEdges"/><rect fill="#121212" x="0" y="25.9" width="12.2" height="24.65" shape-rendering="crispEdges"/><rect fill="#121212" x="12.2" y="25.9" width="134.2" height="24.65" shape-rendering="crispEdges"/><rect fill="#121212" x="146.4" y="25.9" width="12.2" height="24.65" shape-rendering="crispEdges"/><rect fill="#121212" x="158.6" y="25.9" width="12.2" height="24.65" shape-rendering="crispEdges"/><rect fill="#121212" x="170.8" y="25.9" width="170.8" height="24.65" shape-rendering="crispEdges"/><rect fill="#121212" x="341.6" y="25.9" width="12.2" height="24.65" shape-rendering="crispEdges"/><rect fill="#121212" x="353.8" y="25.9" width="12.2" height="24.65" shape-rendering="crispEdges"/><rect fill="#121212" x="366" y="25.9" width="109.8" height="24.65" shape-rendering="crispEdges"/><rect fill="#121212" x="475.8" y="25.9" width="12.2" height="24.65" shape-rendering="crispEdges"/><rect fill="#121212" x="488" y="25.9" width="12.2" height="24.65" shape-rendering="crispEdges"/><rect fill="#121212" x="500.2" y="25.9" width="97.6" height="24.65" shape-rendering="crispEdges"/><rect fill="#121212" x="597.8" y="25.9" width="12.2" height="24.65" shape-rendering="crispEdges"/><rect fill="#121212" x="610" y="25.9" width="12.2" height="24.65" shape-rendering="crispEdges"/><rect fill="#121212" x="622.2" y="25.9" width="109.8" height="24.65" shape-rendering="crispEdges"/><rect fill="#121212" x="732" y="25.9" width="12.2" height="24.65" shape-rendering="crispEdges"/><rect fill="#121212" x="744.2" y="25.9" width="597.8" height="24.65" shape-rendering="crispEdges"/><rect fill="#121212" x="0" y="50.3" width="610" height="24.65" shape-rendering="crispEdges"/><rect fill="#121212" x="610" y="50.3" width="12.2" height="24.65" shape-rendering="crispEdges"/><rect fill="#121212" x="622.2" y="50.3" width="109.8" height="24.65" shape-rendering="crispEdges"/><rect fill="#121212" x="732" y="50.3" width="12.2" height="24.65" shape-rendering="crispEdges"/><rect fill="#121212" x="744.2" y="50.3" width="597.8" height="24.65" shape-rendering="crispEdges"/><rect fill="#121212" x="0" y="74.7" width="1342" height="24.65" shape-rendering="crispEdges"/><rect fill="#121212" x="0" y="99.1" width="24.4" height="24.65" shape-rendering="crispEdges"/><rect fill="#121212" x="24.4" y="99.1" width="12.2" height="24.65" shape-rendering="crispEdges"/><rect fill="#121212" x="36.6" y="99.1" width="1268.8" height="24.65" shape-rendering="crispEdges"/><rect fill="#121212" x="1305.4" y="99.1" width="12.2" height="24.65" shape-rendering="crispEdges"/><rect fill="#121212" x="1317.6" y="99.1" width="24.4" height="24.65" shape-rendering="crispEdges"/><rect fill="#121212" x="0" y="123.5" width="24.4" height="24.65" shape-rendering="crispEdges"/><rect fill="#121212" x="24.4" y="123.5" width="12.2" height="24.65" shape-rendering="crispEdges"/><rect fill="#121212" x="36.6" y="123.5" width="12.2" height="24.65" shape-rendering="crispEdges"/><rect fill="#121212" x="48.8" y="123.5" width="549" height="24.65" shape-rendering="crispEdges"/><rect fill="#121212" x="597.8" y="123.5" width="695.4" height="24.65" shape-rendering="crispEdges"/><rect fill="#121212" x="1293.2" y="123.5" width="12.2" height="24.65" shape-rendering="crispEdges"/><rect fill="#121212" x="1305.4" y="123.5" width="12.2" height="24.65" shape-rendering="crispEdges"/><rect fill="#121212" x="1317.6" y="123.5" width="24.4" height="24.65" shape-rendering="crispEdges"/><rect fill="#121212" x="0" y="147.9" width="24.4" height="24.65" shape-rendering="crispEdges"/><rect fill="#121212" x="24.4" y="147.9" width="12.2" height="24.65" shape-rendering="crispEdges"/><rect fill="#121212" x="36.6" y="147.9" width="1268.8" height="24.65" shape-rendering="crispEdges"/><rect fill="#121212" x="1305.4" y="147.9" width="12.2" height="24.65" shape-rendering="crispEdges"/><rect fill="#121212" x="1317.6" y="147.9" width="24.4" height="24.65" shape-rendering="crispEdges"/><rect fill="#121212" x="0" y="172.3" width="24.4" height="24.65" shape-rendering="crispEdges"/><rect fill="#121212" x="24.4" y="172.3" width="1293.2" height="24.65" shape-rendering="crispEdges"/><rect fill="#121212" x="1317.6" y="172.3" width="24.4" height="24.65" shape-rendering="crispEdges"/><rect fill="#121212" x="0" y="196.7" width="24.4" height="24.65" shape-rendering="crispEdges"/><rect fill="#121212" x="24.4" y="196.7" width="146.4" height="24.65" shape-rendering="crispEdges"/><rect fill="#121212" x="170.8" y="196.7" width="158.6" height="24.65" shape-rendering="crispEdges"/><rect fill="#121212" x="329.4" y="196.7" width="183" height="24.65" shape-rendering="crispEdges"/><rect fill="#121212" x="512.4" y="196.7" width="207.4" height="24.65" shape-rendering="crispEdges"/><rect fill="#121212" x="719.8" y="196.7" width="597.8" height="24.65" shape-rendering="crispEdges"/><rect fill="#121212" x="1317.6" y="196.7" width="24.4" height="24.65" shape-rendering="crispEdges"/><rect fill="#121212" x="0" y="221.1" width="24.4" height="24.65" shape-rendering="crispEdges"/><rect fill="#121212" x="24.4" y="221.1" width="1293.2" height="24.65" shape-rendering="crispEdges"/><rect fill="#121212" x="1317.6" y="221.1" width="24.4" height="24.65" shape-rendering="crispEdges"/><rect fill="#121212" x="0" y="245.5" width="24.4" height="24.65" shape-rendering="crispEdges"/><rect fill="#2d3740" x="24.4" y="245.5" width="183" height="24.65" shape-rendering="crispEdges"/><rect fill="#2d3740" x="207.4" y="245.5" width="183" height="24.65" shape-rendering="crispEdges"/><rect fill="#2d3740" x="390.4" y="245.5" width="927.2" height="24.65" shape-rendering="crispEdges"/><rect fill="#121212" x="1317.6" y="245.5" width="24.4" height="24.65" shape-rendering="crispEdges"/><rect fill="#121212" x="0" y="269.9" width="24.4" height="24.65" shape-rendering="crispEdges"/><rect fill="#0178d4" x="24.4" y="269.9" width="183" height="24.65" shape-rendering="crispEdges"/><rect fill="#0178d4" x="207.4" y="269.9" width="183" height="24.65" shape-rendering="crispEdges"/><rect fill="#0178d4" x="390.4" y="269.9" width="927.2" height="24.65" shape-rendering="crispEdges"/><rect fill="#121212" x="1317.6" y="269.9" width="24.4" height="24.65" shape-rendering="crispEdges"/><rect fill="#121212" x="0" y="294.3" width="24.4" height="24.65" shape-rendering="crispEdges"/><rect fill="#272727" x="24.4" y="294.3" width="183" height="24.65" shape-rendering="crispEdges"/><rect fill="#272727" x="207.4" y="294.3" width="12.2" height="24.65" shape-rendering="crispEdges"/><rect fill="#272727" x="219.6" y="294.3" width="109.8" height="24.65" shape-rendering="crispEdges"/><rect fill="#272727" x="329.4" y="294.3" width="61" height="24.65" shape-rendering="crispEdges"/><rect fill="#272727" x="390.4" y="294.3" width="927.2" height="24.65" shape-rendering="crispEdges"/><rect fill="#121212" x="1317.6" y="294.3" width="24.4" height="24.65" shape-rendering="crispEdges"/><rect fill="#121212" x="0" y="318.7" width="24.4" height="24.65" shape-rendering="crispEdges"/><rect fill="#272727" x="24.4" y="318.7" width="183" height="24.65" shape-rendering="crispEdges"/><rect fill="#272727" x="207.4" y="318.7" width="12.2" height="24.65" shape-rendering="crispEdges"/><rect fill="#272727" x="219.6" y="318.7" width="109.8" height="24.65" shape-rendering="crispEdges"/><rect fill="#272727" x="329.4" y="318.7" width="61" height="24.65" shape-rendering="crispEdges"/><rect fill="#272727" x="390.4" y="318.7" width="927.2" height="24.65" shape-rendering="crispEdges"/><rect fill="#121212" x="1317.6" y="318.7" width="24.4" height="24.65" shape-rendering="crispEdges"/><rect fill="#121212" x="0" y="343.1" width="24.4" height="24.65" shape-rendering="crispEdges"/><rect fill="#272727" x="24.4" y="343.1" width="183" height="24.65" shape-rendering="crispEdges"/><rect fill="#272727" x="207.4" y="343.1" width="12.2" height="24.65" shape-rendering="crispEdges"/><rect fill="#272727" x="219.6" y="343.1" width="122" height="24.65" shape-rendering="crispEdges"/><rect fill="#272727" x="341.6" y="343.1" width="48.8" height="24.65" shape-rendering="crispEdges"/><rect fill="#272727" x="390.4" y="343.1" width="927.2" height="24.65" shape-rendering="crispEdges"/><rect fill="#121212" x="1317.6" y="343.1" width="24.4" height="24.65" shape-rendering="crispEdges"/><rect fill="#121212" x="0" y="367.5" width="24.4" height="24.65" shape-rendering="crispEdges"/><rect fill="#272727" x="24.4" y="367.5" width="183" height="24.65" shape-rendering="crispEdges"/><rect fill="#272727" x="207.4" y="367.5" width="12.2" height="24.65" shape-rendering="crispEdges"/><rect fill="#272727" x="219.6" y="367.5" width="109.8" height="24.65" shape-rendering="crispEdges"/><rect fill="#272727" x="329.4" y="367.5" width="61" height="24.65" shape-rendering="crispEdges"/><rect fill="#272727" x="390.4" y="367.5" width="927.2" height="24.65" shape-rendering="crispEdges"/><rect fill="#121212" x="1317.6" y="367.5" width="24.4" height="24.65" shape-rendering="crispEdges"/><rect fill="#121212" x="0" y="391.9" width="24.4" height="24.65" shape-rendering="crispEdges"/><rect fill="#272727" x="24.4" y="391.9" width="183" height="24.65" shape-rendering="crispEdges"/><rect fill="#272727" x="207.4" y="391.9" width="12.2" height="24.65" shape-rendering="crispEdges"/><rect fill="#272727" x="219.6" y="391.9" width="109.8" height="24.65" shape-rendering="crispEdges"/><rect fill="#272727" x="329.4" y="391.9" width="61" height="24.65" shape-rendering="crispEdges"/><rect fill="#272727" x="390.4" y="391.9" width="927.2" height="24.65" shape-rendering="crispEdges"/><rect fill="#121212" x="1317.6" y="391.9" width="24.4" height="24.65" shape-rendering="crispEdges"/><rect fill="#121212" x="0" y="416.3" width="24.4" height="24.65" shape-rendering="crispEdges"/><rect fill="#121212" x="24.4" y="416.3" width="1293.2" height="24.65" shape-rendering="crispEdges"/><rect fill="#121212" x="1317.6" y="416.3" width="24.4" height="24.65" shape-rendering="crispEdges"/><rect fill="#121212" x="0" y="440.7" width="24.4" height="24.65" shape-rendering="crispEdges"/><rect fill="#121212" x="24.4" y="440.7" width="1293.2" height="24.65" shape-rendering="crispEdges"/><rect fill="#121212" x="1317.6" y="440.7" width="24.4" height="24.65" shape-rendering="crispEdges"/><rect fill="#121212" x="0" y="465.1" width="24.4" height="24.65" shape-rendering="crispEdges"/><rect fill="#121212" x="24.4" y="465.1" width="1293.2" height="24.65" shape-rendering="crispEdges"/><rect fill="#121212" x="1317.6" y="465.1" width="24.4" height="24.65" shape-rendering="crispEdges"/><rect fill="#121212" x="0" y="489.5" width="24.4" height="24.65" shape-rendering="crispEdges"/><rect fill="#121212" x="24.4" y="489.5" width="1293.2" height="24.65" shape-rendering="crispEdges"/><rect fill="#121212" x="1317.6" y="489.5" width="24.4" height="24.65" shape-rendering="crispEdges"/><rect fill="#121212" x="0" y="513.9" width="24.4" height="24.65" shape-rendering="crispEdges"/><rect fill="#121212" x="24.4" y="513.9" width="1293.2" height="24.65" shape-rendering="crispEdges"/><rect fill="#121212" x="1317.6" y="513.9" width="24.4" height="24.65" shape-rendering="crispEdges"/><rect fill="#121212" x="0" y="538.3" width="24.4" height="24.65" shape-rendering="crispEdges"/><rect fill="#121212" x="24.4" y="538.3" width="1293.2" height="24.65" shape-rendering="crispEdges"/><rect fill="#121212" x="1317.6" y="538.3" width="24.4" height="24.65" shape-rendering="crispEdges"/><rect fill="#121212" x="0" y="562.7" width="24.4" height="24.65" shape-rendering="crispEdges"/><rect fill="#121212" x="24.4" y="562.7" width="1293.2" height="24.65" shape-rendering="crispEdges"/><rect fill="#121212" x="1317.6" y="562.7" width="24.4" height="24.65" shape-rendering="crispEdges"/><rect fill="#121212" x="0" y="587.1" width="24.4" height="24.65" shape-rendering="crispEdges"/><rect fill="#121212" x="24.4" y="587.1" width="1293.2" height="24.65" shape-rendering="crispEdges"/><rect fill="#121212" x="1317.6" y="587.1" width="24.4" height="24.65" shape-rendering="crispEdges"/><rect fill="#121212" x="0" y="611.5" width="24.4" height="24.65" shape-rendering="crispEdges"/><rect fill="#121212" x="24.4" y="611.5" width="1293.2" height="24.65" shape-rendering="crispEdges"/><rect fill="#121212" x="1317.6" y="611.5" width="24.4" height="24.65" shape-rendering="crispEdges"/><rect fill="#121212" x="0" y="635.9" width="24.4" height="24.65" shape-rendering="crispEdges"/><rect fill="#121212" x="24.4" y="635.9" width="1293.2" height="24.65" shape-rendering="crispEdges"/><rect fill="#121212" x="1317.6" y="635.9" width="24.4" height="24.65" shape-rendering="crispEdges"/><rect fill="#121212" x="0" y="660.3" width="24.4" height="24.65" shape-rendering="crispEdges"/><rect fill="#121212" x="24.4" y="660.3" width="1293.2" height="24.65" shape-rendering="crispEdges"/><rect fill="#121212" x="1317.6" y="660.3" width="24.4" height="24.65" shape-rendering="crispEdges"/><rect fill="#121212" x="0" y="684.7" width="24.4" height="24.65" shape-rendering="crispEdges"/><rect fill="#121212" x="24.4" y="684.7" width="1293.2" height="24.65" shape-rendering="crispEdges"/><rect fill="#121212" x="1317.6" y="684.7" width="24.4" height="24.65" shape-rendering="crispEdges"/><rect fill="#121212" x="0" y="709.1" width="24.4" height="24.65" shape-rendering="crispEdges"/><rect fill="#121212" x="24.4" y="709.1" width="1293.2" height="24.65" shape-rendering="crispEdges"/><rect fill="#121212" x="1317.6" y="709.1" width="24.4" height="24.65" shape-rendering="crispEdges"/><rect fill="#121212" x="0" y="733.5" width="24.4" height="24.65" shape-rendering="crispEdges"/><rect fill="#121212" x="24.4" y="733.5" width="1293.2" height="24.65" shape-rendering="crispEdges"/><rect fill="#121212" x="1317.6" y="733.5" width="24.4" height="24.65" shape-rendering="crispEdges"/><rect fill="#121212" x="0" y="757.9" width="24.4" height="24.65" shape-rendering="crispEdges"/><rect fill="#121212" x="24.4" y="757.9" width="1293.2" height="24.65" shape-rendering="crispEdges"/><rect fill="#121212" x="1317.6" y="757.9" width="24.4" height="24.65" shape-rendering="crispEdges"/><rect fill="#121212" x="0" y="782.3" width="24.4" height="24.65" shape-rendering="crispEdges"/><rect fill="#121212" x="24.4" y="782.3" width="1293.2" height="24.65" shape-rendering="crispEdges"/><rect fill="#121212" x="1317.6" y="782.3" width="24.4" height="24.65" shape-rendering="crispEdges"/><rect fill="#121212" x="0" y="806.7" width="1342" height="24.65" shape-rendering="crispEdges"/><rect fill="#0053aa" x="0" y="831.1" width="12.2" height="24.65" shape-rendering="crispEdges"/><rect fill="#0053aa" x="12.2" y="831.1" width="1317.6" height="24.65" shape-rendering="crispEdges"/><rect fill="#0053aa" x="1329.8" y="831.1" width="12.2" height="24.65" shape-rendering="crispEdges"/>
    <g class="terminal-3812035162-matrix">
    <text class="terminal-3812035162-r2" x="12.2" y="20" textLength="12.2" clip-path="url(#terminal-3812035162-line-0)">⭘</text><text class="terminal-3812035162-r2" x="463.6" y="20" textLength="170.8" clip-path="url(#terminal-3812035162-line-0)">Budget&#160;Tracker</text><text class="terminal-3812035162-r3" x="634.4" y="20" textLength="36.6" clip-path="url(#terminal-3812035162-line-0)">&#160;—&#160;</text><text class="terminal-3812035162-r3" x="671" y="20" textLength="183" clip-path="url(#terminal-3812035162-line-0)">Local&#160;&amp;&#160;Offline</text><text class="terminal-3812035162-r1" x="1342" y="20" textLength="12.2" clip-path="url(#terminal-3812035162-line-0)">
</text><text class="terminal-3812035162-r4" x="12.2" y="44.4" textLength="134.2" clip-path="url(#terminal-3812035162-line-1)">1&#160;Dashboard</text><text class="terminal-3812035162-r4" x="170.8" y="44.4" textLength="170.8" clip-path="url(#terminal-3812035162-line-1)">2&#160;Transactions</text><text class="terminal-3812035162-r4" x="366" y="44.4" textLength="109.8" clip-path="url(#terminal-3812035162-line-1)">3&#160;Summary</text><text class="terminal-3812035162-r4" x="500.2" y="44.4" textLength="97.6" clip-path="url(#terminal-3812035162-line-1)">4&#160;Charts</text><text class="terminal-3812035162-r2" x="622.2" y="44.4" textLength="109.8" clip-path="url(#terminal-3812035162-line-1)">5&#160;Budgets</text><text class="terminal-3812035162-r1" x="1342" y="44.4" textLength="12.2" clip-path="url(#terminal-3812035162-line-1)">
</text><text class="terminal-3812035162-r5" x="0" y="68.8" textLength="610" clip-path="url(#terminal-3812035162-line-2)">━━━━━━━━━━━━━━━━━━━━━━━━━━━━━━━━━━━━━━━━━━━━━━━━━━</text><text class="terminal-3812035162-r5" x="610" y="68.8" textLength="12.2" clip-path="url(#terminal-3812035162-line-2)">╸</text><text class="terminal-3812035162-r6" x="622.2" y="68.8" textLength="109.8" clip-path="url(#terminal-3812035162-line-2)">━━━━━━━━━</text><text class="terminal-3812035162-r5" x="732" y="68.8" textLength="12.2" clip-path="url(#terminal-3812035162-line-2)">╺</text><text class="terminal-3812035162-r5" x="744.2" y="68.8" textLength="597.8" clip-path="url(#terminal-3812035162-line-2)">━━━━━━━━━━━━━━━━━━━━━━━━━━━━━━━━━━━━━━━━━━━━━━━━━</text><text class="terminal-3812035162-r1" x="1342" y="68.8" textLength="12.2" clip-path="url(#terminal-3812035162-line-2)">
</text><text class="terminal-3812035162-r1" x="1342" y="93.2" textLength="12.2" clip-path="url(#terminal-3812035162-line-3)">
</text><text class="terminal-3812035162-r7" x="24.4" y="117.6" textLength="12.2" clip-path="url(#terminal-3812035162-line-4)">╭</text><text class="terminal-3812035162-r7" x="36.6" y="117.6" textLength="1268.8" clip-path="url(#terminal-3812035162-line-4)">────────────────────────────────────────────────────────────────────────────────────────────────────────</text><text class="terminal-3812035162-r7" x="1305.4" y="117.6" textLength="12.2" clip-path="url(#terminal-3812035162-line-4)">╮</text><text class="terminal-3812035162-r1" x="1342" y="117.6" textLength="12.2" clip-path="url(#terminal-3812035162-line-4)">
</text><text class="terminal-3812035162-r7" x="24.4" y="142" textLength="12.2" clip-path="url(#terminal-3812035162-line-5)">│</text><text class="terminal-3812035162-r8" x="48.8" y="142" textLength="549" clip-path="url(#terminal-3812035162-line-5)">&#160;&#160;Daily&#160;Budget:&#160;₱300.00&#160;/&#160;day&#160;&#160;&#160;[s]&#160;to&#160;change</text><text class="terminal-3812035162-r7" x="1305.4" y="142" textLength="12.2" clip-path="url(#terminal-3812035162-line-5)">│</text><text class="terminal-3812035162-r1" x="1342" y="142" textLength="12.2" clip-path="url(#terminal-3812035162-line-5)">
</text><text class="terminal-3812035162-r7" x="24.4" y="166.4" textLength="12.2" clip-path="url(#terminal-3812035162-line-6)">╰</text><text class="terminal-3812035162-r7" x="36.6" y="166.4" textLength="1268.8" clip-path="url(#terminal-3812035162-line-6)">────────────────────────────────────────────────────────────────────────────────────────────────────────</text><text class="terminal-3812035162-r7" x="1305.4" y="166.4" textLength="12.2" clip-path="url(#terminal-3812035162-line-6)">╯</text><text class="terminal-3812035162-r1" x="1342" y="166.4" textLength="12.2" clip-path="url(#terminal-3812035162-line-6)">
</text><text class="terminal-3812035162-r1" x="1342" y="190.8" textLength="12.2" clip-path="url(#terminal-3812035162-line-7)">
</text><text class="terminal-3812035162-r9" x="24.4" y="215.2" textLength="146.4" clip-path="url(#terminal-3812035162-line-8)">&#160;Add&#160;limit&#160;&#160;</text><text class="terminal-3812035162-r9" x="170.8" y="215.2" textLength="158.6" clip-path="url(#terminal-3812035162-line-8)">&#160;Edit&#160;limit&#160;&#160;</text><text class="terminal-3812035162-r10" x="329.4" y="215.2" textLength="183" clip-path="url(#terminal-3812035162-line-8)">&#160;Delete&#160;limit&#160;&#160;</text><text class="terminal-3812035162-r11" x="512.4" y="215.2" textLength="207.4" clip-path="url(#terminal-3812035162-line-8)">&#160;Set&#160;daily&#160;budget</text><text class="terminal-3812035162-r1" x="1342" y="215.2" textLength="12.2" clip-path="url(#terminal-3812035162-line-8)">
</text><text class="terminal-3812035162-r1" x="1342" y="239.6" textLength="12.2" clip-path="url(#terminal-3812035162-line-9)">
</text><text class="terminal-3812035162-r8" x="24.4" y="264" textLength="183" clip-path="url(#terminal-3812035162-line-10)">&#160;Category&#160;&#160;&#160;&#160;&#160;&#160;</text><text class="terminal-3812035162-r8" x="207.4" y="264" textLength="183" clip-path="url(#terminal-3812035162-line-10)">&#160;Monthly&#160;Limit&#160;</text><text class="terminal-3812035162-r1" x="1342" y="264" textLength="12.2" clip-path="url(#terminal-3812035162-line-10)">
</text><text class="terminal-3812035162-r12" x="24.4" y="288.4" textLength="183" clip-path="url(#terminal-3812035162-line-11)">&#160;Entertainment&#160;</text><text class="terminal-3812035162-r12" x="207.4" y="288.4" textLength="183" clip-path="url(#terminal-3812035162-line-11)">&#160;₱3,000.00&#160;&#160;&#160;&#160;&#160;</text><text class="terminal-3812035162-r1" x="1342" y="288.4" textLength="12.2" clip-path="url(#terminal-3812035162-line-11)">
</text><text class="terminal-3812035162-r2" x="24.4" y="312.8" textLength="183" clip-path="url(#terminal-3812035162-line-12)">&#160;Food&#160;&#160;&#160;&#160;&#160;&#160;&#160;&#160;&#160;&#160;</text><text class="terminal-3812035162-r13" x="219.6" y="312.8" textLength="109.8" clip-path="url(#terminal-3812035162-line-12)">₱5,000.00</text><text class="terminal-3812035162-r1" x="1342" y="312.8" textLength="12.2" clip-path="url(#terminal-3812035162-line-12)">
</text><text class="terminal-3812035162-r2" x="24.4" y="337.2" textLength="183" clip-path="url(#terminal-3812035162-line-13)">&#160;Health&#160;&#160;&#160;&#160;&#160;&#160;&#160;&#160;</text><text class="terminal-3812035162-r13" x="219.6" y="337.2" textLength="109.8" clip-path="url(#terminal-3812035162-line-13)">₱1,500.00</text><text class="terminal-3812035162-r1" x="1342" y="337.2" textLength="12.2" clip-path="url(#terminal-3812035162-line-13)">
</text><text class="terminal-3812035162-r2" x="24.4" y="361.6" textLength="183" clip-path="url(#terminal-3812035162-line-14)">&#160;Rent&#160;&#160;&#160;&#160;&#160;&#160;&#160;&#160;&#160;&#160;</text><text class="terminal-3812035162-r13" x="219.6" y="361.6" textLength="122" clip-path="url(#terminal-3812035162-line-14)">₱12,000.00</text><text class="terminal-3812035162-r1" x="1342" y="361.6" textLength="12.2" clip-path="url(#terminal-3812035162-line-14)">
</text><text class="terminal-3812035162-r2" x="24.4" y="386" textLength="183" clip-path="url(#terminal-3812035162-line-15)">&#160;Transport&#160;&#160;&#160;&#160;&#160;</text><text class="terminal-3812035162-r13" x="219.6" y="386" textLength="109.8" clip-path="url(#terminal-3812035162-line-15)">₱1,000.00</text><text class="terminal-3812035162-r1" x="1342" y="386" textLength="12.2" clip-path="url(#terminal-3812035162-line-15)">
</text><text class="terminal-3812035162-r2" x="24.4" y="410.4" textLength="183" clip-path="url(#terminal-3812035162-line-16)">&#160;Utilities&#160;&#160;&#160;&#160;&#160;</text><text class="terminal-3812035162-r13" x="219.6" y="410.4" textLength="109.8" clip-path="url(#terminal-3812035162-line-16)">₱2,500.00</text><text class="terminal-3812035162-r1" x="1342" y="410.4" textLength="12.2" clip-path="url(#terminal-3812035162-line-16)">
</text><text class="terminal-3812035162-r1" x="1342" y="434.8" textLength="12.2" clip-path="url(#terminal-3812035162-line-17)">
</text><text class="terminal-3812035162-r1" x="1342" y="459.2" textLength="12.2" clip-path="url(#terminal-3812035162-line-18)">
</text><text class="terminal-3812035162-r1" x="1342" y="483.6" textLength="12.2" clip-path="url(#terminal-3812035162-line-19)">
</text><text class="terminal-3812035162-r1" x="1342" y="508" textLength="12.2" clip-path="url(#terminal-3812035162-line-20)">
</text><text class="terminal-3812035162-r1" x="1342" y="532.4" textLength="12.2" clip-path="url(#terminal-3812035162-line-21)">
</text><text class="terminal-3812035162-r1" x="1342" y="556.8" textLength="12.2" clip-path="url(#terminal-3812035162-line-22)">
</text><text class="terminal-3812035162-r1" x="1342" y="581.2" textLength="12.2" clip-path="url(#terminal-3812035162-line-23)">
</text><text class="terminal-3812035162-r1" x="1342" y="605.6" textLength="12.2" clip-path="url(#terminal-3812035162-line-24)">
</text><text class="terminal-3812035162-r1" x="1342" y="630" textLength="12.2" clip-path="url(#terminal-3812035162-line-25)">
</text><text class="terminal-3812035162-r1" x="1342" y="654.4" textLength="12.2" clip-path="url(#terminal-3812035162-line-26)">
</text><text class="terminal-3812035162-r1" x="1342" y="678.8" textLength="12.2" clip-path="url(#terminal-3812035162-line-27)">
</text><text class="terminal-3812035162-r1" x="1342" y="703.2" textLength="12.2" clip-path="url(#terminal-3812035162-line-28)">
</text><text class="terminal-3812035162-r1" x="1342" y="727.6" textLength="12.2" clip-path="url(#terminal-3812035162-line-29)">
</text><text class="terminal-3812035162-r1" x="1342" y="752" textLength="12.2" clip-path="url(#terminal-3812035162-line-30)">
</text><text class="terminal-3812035162-r1" x="1342" y="776.4" textLength="12.2" clip-path="url(#terminal-3812035162-line-31)">
</text><text class="terminal-3812035162-r1" x="1342" y="800.8" textLength="12.2" clip-path="url(#terminal-3812035162-line-32)">
</text><text class="terminal-3812035162-r1" x="1342" y="825.2" textLength="12.2" clip-path="url(#terminal-3812035162-line-33)">
</text><text class="terminal-3812035162-r14" x="12.2" y="849.6" textLength="1317.6" clip-path="url(#terminal-3812035162-line-34)">&#160;[1-5]&#160;Switch&#160;tab&#160;&#160;[a]&#160;Add&#160;&#160;[e]&#160;Edit&#160;&#160;[d]&#160;Delete&#160;&#160;[,]&#160;Prev&#160;month&#160;&#160;[.]&#160;Next&#160;month&#160;&#160;[n]&#160;Budget&#160;&#160;[s]&#160;Daily&#160;&#160;[q]</text>
    </g>
    </g>
</svg>
